<svg width="21" height="21" viewBox="0 0 21 21" fill="none" xmlns="http://www.w3.org/2000/svg">
<path d="M10.5 3.83594C11.0859 3.83594 11.6589 3.90104 12.2188 4.03125C12.7917 4.14844 13.3451 4.33073 13.8789 4.57812L14.1719 4.71484L14.7578 5.00781L14.1523 6.19922L13.5664 5.90625C13.0846 5.65885 12.5833 5.47656 12.0625 5.35938C11.5547 5.22917 11.0339 5.16406 10.5 5.16406C9.5625 5.16406 8.67708 5.34635 7.84375 5.71094C7.01042 6.0625 6.28125 6.55078 5.65625 7.17578C5.04427 7.78776 4.5625 8.51042 4.21094 9.34375C3.84635 10.1771 3.66406 11.0625 3.66406 12C3.66406 12.9375 3.84635 13.8229 4.21094 14.6562C4.5625 15.4896 5.04427 16.2188 5.65625 16.8438C6.28125 17.4557 7.01042 17.9375 7.84375 18.2891C8.67708 18.6536 9.5625 18.8359 10.5 18.8359C11.4245 18.8359 12.2969 18.6602 13.1172 18.3086C13.9375 17.9701 14.6536 17.5013 15.2656 16.9023C15.8776 16.3034 16.3659 15.6003 16.7305 14.793C17.1081 13.9857 17.3099 13.1263 17.3359 12.2148V12V11.3359H18.6641V12C18.6641 13.1328 18.4492 14.194 18.0195 15.1836C17.5898 16.1732 17.0039 17.0391 16.2617 17.7812C15.5326 18.5104 14.6732 19.0898 13.6836 19.5195C12.694 19.9492 11.6328 20.1641 10.5 20.1641C9.36719 20.1641 8.30599 19.9492 7.31641 19.5195C6.32682 19.0898 5.46094 18.5104 4.71875 17.7812C3.98958 17.0391 3.41016 16.1732 2.98047 15.1836C2.55078 14.194 2.33594 13.1328 2.33594 12C2.33594 10.8672 2.55078 9.80599 2.98047 8.81641C3.41016 7.82682 3.98958 6.96745 4.71875 6.23828C5.46094 5.49609 6.32682 4.91016 7.31641 4.48047C8.30599 4.05078 9.36719 3.83594 10.5 3.83594ZM16.8086 7.25391L17.7461 8.21094L10.5 15.4375L6.41797 11.3555L7.35547 10.418L10.5 13.5625L16.8086 7.25391Z" fill="black"/>
</svg>
